<svg width="75" height="51" viewBox="0 0 75 51" fill="none" xmlns="http://www.w3.org/2000/svg">
<path d="M0.719971 50.0233V0.717776H12.1089V21.9678L30.1644 0.717776H42.9422L24.47 22.7317L44.1922 50.0233H31.1366L17.2477 30.2317L12.1089 35.5094V50.0233H0.719971Z" fill="#E2E4DD"/>
<path d="M29.2421 24.9539C29.2421 21.9446 29.7977 19.0048 30.9088 16.1344C32.0199 13.2178 33.6403 10.5789 35.7699 8.21777C37.8995 5.85666 40.4921 3.98166 43.5477 2.59278C46.6032 1.15759 50.0754 0.439999 53.9643 0.439999C58.594 0.439999 62.5986 1.43537 65.9782 3.42611C69.4041 5.41685 71.9504 8.00944 73.6171 11.2039L64.8671 17.315C64.1264 15.5557 63.131 14.19 61.881 13.2178C60.6773 12.2456 59.3347 11.5743 57.8532 11.2039C56.418 10.7872 55.0291 10.5789 53.6865 10.5789C51.5106 10.5789 49.6125 11.0187 47.9921 11.8983C46.3717 12.7317 45.0291 13.8659 43.9643 15.3011C42.8995 16.7363 42.1125 18.3335 41.6032 20.0928C41.094 21.852 40.8393 23.6113 40.8393 25.3706C40.8393 27.315 41.1402 29.19 41.7421 30.9956C42.344 32.8011 43.2004 34.3983 44.3115 35.7872C45.469 37.1761 46.8578 38.2872 48.4782 39.1206C50.0986 39.9076 51.881 40.3011 53.8254 40.3011C55.2143 40.3011 56.6264 40.0696 58.0615 39.6067C59.4967 39.1437 60.8162 38.4261 62.0199 37.4539C63.2699 36.4354 64.219 35.1159 64.8671 33.4956L74.1727 38.9817C73.2004 41.3891 71.6032 43.4493 69.381 45.1622C67.1588 46.8752 64.6356 48.1946 61.8115 49.1206C59.0338 50.0002 56.2791 50.44 53.5477 50.44C49.9828 50.44 46.6958 49.7224 43.6865 48.2872C40.7236 46.8057 38.1541 44.8613 35.9782 42.4539C33.8486 40.0002 32.1819 37.2687 30.9782 34.2594C29.8208 31.2039 29.2421 28.102 29.2421 24.9539Z" fill="#E2E4DD"/>
</svg>
