<svg width="76" height="51" viewBox="0 0 76 51" fill="none" xmlns="http://www.w3.org/2000/svg">
<path d="M0.719971 50.0233V0.717775H12.1089V21.9678L30.1644 0.717775H49.5L24.47 22.7317L48.5 50.0233H31.1366L17.2477 30.2317L12.1089 35.5094V50.0233H0.719971Z" fill="#E2E4DD"/>
<path d="M31 25.0042C31 21.9347 31.5564 18.9361 32.6692 16.0083C33.7821 13.0333 35.4049 10.3417 37.5379 7.93333C39.6708 5.525 42.2674 3.6125 45.3277 2.19583C48.3879 0.731943 51.8655 0 55.7604 0C60.3972 0 64.408 1.01528 67.7929 3.04584C71.2241 5.07639 73.7743 7.72083 75.4436 10.9792L66.6801 17.2125C65.9382 15.4181 64.9413 14.025 63.6893 13.0333C62.4838 12.0417 61.1391 11.3569 59.6553 10.9792C58.2179 10.5542 56.8269 10.3417 55.4822 10.3417C53.3029 10.3417 51.4019 10.7903 49.779 11.6875C48.1561 12.5375 46.8114 13.6944 45.745 15.1583C44.6785 16.6222 43.8903 18.2514 43.3802 20.0458C42.8702 21.8403 42.6151 23.6347 42.6151 25.4292C42.6151 27.4125 42.9165 29.325 43.5193 31.1667C44.1221 33.0083 44.9799 34.6375 46.0927 36.0542C47.2519 37.4708 48.643 38.6042 50.2658 39.4542C51.8887 40.2569 53.6739 40.6583 55.6213 40.6583C57.0124 40.6583 58.4266 40.4222 59.864 39.95C61.3014 39.4778 62.6229 38.7458 63.8284 37.7542C65.0804 36.7153 66.0309 35.3694 66.6801 33.7167L76 39.3125C75.0263 41.7681 73.4266 43.8694 71.2009 45.6167C68.9753 47.3639 66.4482 48.7097 63.6198 49.6542C60.8377 50.5514 58.0788 51 55.3431 51C51.7728 51 48.4807 50.2681 45.4668 48.8042C42.4992 47.2931 39.9258 45.3097 37.7465 42.8542C35.6136 40.3514 33.9444 37.5653 32.7388 34.4958C31.5796 31.3792 31 28.2153 31 25.0042Z" fill="#E2E4DD"/>
</svg>
