<svg width="37" height="25" viewBox="0 0 37 25" fill="none" xmlns="http://www.w3.org/2000/svg">
<mask id="mask0_519_700" style="mask-type:alpha" maskUnits="userSpaceOnUse" x="0" y="0" width="37" height="25">
<path d="M0 24.1043V0.345856H5.59762V10.5854L14.4719 0.345856H23.9753L11.6731 10.9535L23.4838 24.1043H14.9497L8.12337 14.5674L5.59762 17.1106V24.1043H0Z" fill="#E2E4DD"/>
<path d="M14.8826 12.0485C14.8826 10.5695 15.156 9.12457 15.703 7.71379C16.25 6.28026 17.0476 4.98325 18.0959 3.82276C19.1442 2.66228 20.4205 1.74072 21.9246 1.05809C23.4287 0.352695 25.1379 0 27.0523 0C29.3313 0 31.3026 0.489223 32.9662 1.46767C34.6527 2.44611 35.9061 3.72037 36.7265 5.29043L32.4193 8.29403C32.0546 7.42936 31.5646 6.7581 30.9493 6.28026C30.3568 5.80241 29.6959 5.47247 28.9666 5.29043C28.2601 5.08564 27.5764 4.98325 26.9155 4.98325C25.8444 4.98325 24.91 5.19941 24.1124 5.63175C23.3148 6.04133 22.6539 6.59882 22.1297 7.30421C21.6055 8.0096 21.2181 8.79463 20.9674 9.6593C20.7167 10.524 20.5914 11.3887 20.5914 12.2533C20.5914 13.209 20.7395 14.1306 21.0358 15.018C21.3321 15.9054 21.7537 16.6905 22.3006 17.3731C22.8704 18.0557 23.5541 18.6018 24.3517 19.0114C25.1493 19.3983 26.0267 19.5917 26.9839 19.5917C27.6676 19.5917 28.3627 19.4779 29.0692 19.2503C29.7757 19.0228 30.4252 18.6701 31.0177 18.1923C31.633 17.6917 32.1002 17.0432 32.4193 16.2467L37 18.9432C36.5214 20.1264 35.7352 21.139 34.6413 21.9809C33.5473 22.8228 32.3053 23.4713 30.9151 23.9264C29.5478 24.3587 28.1918 24.5749 26.8472 24.5749C25.0924 24.5749 23.4743 24.2222 21.993 23.5168C20.5344 22.7887 19.2696 21.833 18.1985 20.6497C17.1501 19.4438 16.3297 18.1012 15.7372 16.6222C15.1674 15.1204 14.8826 13.5958 14.8826 12.0485Z" fill="#E2E4DD"/>
</mask>
<g mask="url(#mask0_519_700)">
<path d="M0 1H37V24H0V1Z" fill="#D9D9D9"/>
</g>
</svg>
